static pose
nRows=1
nColumns=258

# File generated from solving marker data for model GIL08
name static pose
datacolumns 258
datarows 1
otherdata 1
range 0.283330 0.283330
endheader
time	pelvis_tx	pelvis_ty	pelvis_tz	pelvis_tilt	pelvis_list	pelvis_rotation	hip_flexion_r	hip_adduction_r	hip_rotation_r	knee_angle_r	ankle_angle_r	hip_flexion_l	hip_adduction_l	hip_rotation_l	knee_angle_l	ankle_angle_l	lumbar_extension	lumbar_bending	lumbar_rotation	subtalar_angle_r	mtp_angle_r	subtalar_angle_l	mtp_angle_l	midhip_tx	midhip_ty	midhip_tz	hip_r_tx	hip_r_ty	hip_r_tz	hip_l_tx	hip_l_ty	hip_l_tz	knee_r_tx	knee_r_ty	knee_r_tz	knee_l_tx	knee_l_ty	knee_l_tz	ankle_r_tx	ankle_r_ty	ankle_r_tz	ankle_l_tx	ankle_l_ty	ankle_l_tz	midasis_tx	midasis_ty	midasis_tz	asis_r_tx	asis_r_ty	asis_r_tz	asis_l_tx	asis_l_ty	asis_l_tz	psis_r_tx	psis_r_ty	psis_r_tz	psis_l_tx	psis_l_ty	psis_l_tz	epicondLat_r_tx	epicondLat_r_ty	epicondLat_r_tz	epicondLat_l_tx	epicondLat_l_ty	epicondLat_l_tz	epicondMed_r_tx	epicondMed_r_ty	epicondMed_r_tz	epicondMed_l_tx	epicondMed_l_ty	epicondMed_l_tz	malleolusLat_r_tx	malleolusLat_r_ty	malleolusLat_r_tz	malleolusLat_l_tx	malleolusLat_l_ty	malleolusLat_l_tz	malleolusMedv_r_tx	malleolusMedv_r_ty	malleolusMedv_r_tz	malleolusMedv_l_tx	malleolusMedv_l_ty	malleolusMedv_l_tz	heel_r_tx	heel_r_ty	heel_r_tz	heel_l_tx	heel_l_ty	heel_l_tz	sternalnotch_tx	sternalnotch_ty	sternalnotch_tz	xyphoidprocess_tx	xyphoidprocess_ty	xyphoidprocess_tz	neck_tx	neck_ty	neck_tz	subclavicle_r_tx	subclavicle_r_ty	subclavicle_r_tz	subclavicle_l_tx	subclavicle_l_ty	subclavicle_l_tz	toe_r_tx	toe_r_ty	toe_r_tz	toe_l_tx	toe_l_ty	toe_l_tz	thighwand_r_tx	thighwand_r_ty	thighwand_r_tz	thighwand_l_tx	thighwand_l_ty	thighwand_l_tz	upperleg1_r_tx	upperleg1_r_ty	upperleg1_r_tz	upperleg1_l_tx	upperleg1_l_ty	upperleg1_l_tz	upperleg2_r_tx	upperleg2_r_ty	upperleg2_r_tz	upperleg2_l_tx	upperleg2_l_ty	upperleg2_l_tz	shankwand_r_tx	shankwand_r_ty	shankwand_r_tz	shankwand_l_tx	shankwand_l_ty	shankwand_l_tz	lowerleg1_r_tx	lowerleg1_r_ty	lowerleg1_r_tz	lowerleg1_l_tx	lowerleg1_l_ty	lowerleg1_l_tz	ground_marker_px	ground_marker_py	ground_marker_pz	ground_marker_px	ground_marker_py	ground_marker_pz	ground_marker_px	ground_marker_py	ground_marker_pz	ground_marker_px	ground_marker_py	ground_marker_pz	ground_marker_px	ground_marker_py	ground_marker_pz	ground_marker_px	ground_marker_py	ground_marker_pz	ground_marker_px	ground_marker_py	ground_marker_pz	ground_marker_px	ground_marker_py	ground_marker_pz	ground_marker_px	ground_marker_py	ground_marker_pz	ground_marker_px	ground_marker_py	ground_marker_pz	ground_marker_px	ground_marker_py	ground_marker_pz	ground_marker_px	ground_marker_py	ground_marker_pz	ground_marker_px	ground_marker_py	ground_marker_pz	ground_marker_px	ground_marker_py	ground_marker_pz	ground_marker_px	ground_marker_py	ground_marker_pz	ground_marker_px	ground_marker_py	ground_marker_pz	ground_marker_px	ground_marker_py	ground_marker_pz	ground_marker_px	ground_marker_py	ground_marker_pz	ground_marker_px	ground_marker_py	ground_marker_pz	ground_marker_px	ground_marker_py	ground_marker_pz	ground_marker_px	ground_marker_py	ground_marker_pz	ground_marker_px	ground_marker_py	ground_marker_pz	ground_marker_px	ground_marker_py	ground_marker_pz	ground_marker_px	ground_marker_py	ground_marker_pz	ground_marker_px	ground_marker_py	ground_marker_pz	ground_marker_px	ground_marker_py	ground_marker_pz	ground_marker_px	ground_marker_py	ground_marker_pz	ground_marker_px	ground_marker_py	ground_marker_pz	ground_marker_px	ground_marker_py	ground_marker_pz	ground_marker_px	ground_marker_py	ground_marker_pz	ground_marker_px	ground_marker_py	ground_marker_pz	ground_marker_px	ground_marker_py	ground_marker_pz	ground_marker_px	ground_marker_py	ground_marker_pz	ground_marker_px	ground_marker_py	ground_marker_pz	ground_marker_px	ground_marker_py	ground_marker_pz	ground_marker_px	ground_marker_py	ground_marker_pz	ground_marker_px	ground_marker_py	ground_marker_pz	ground_marker_px	ground_marker_py	ground_marker_pz	ground_marker_px	ground_marker_py	ground_marker_pz
  0.28333000	  0.73468404	  0.97440177	 -0.27032929	  0.78986075	  0.15781656	  0.40904290	 -2.31782664	 -1.32606528	  0.03910862	 -2.17086006	 -0.00027433	 -0.85774842	 -1.03307139	  0.01590370	 -1.26514336	 -0.00020036	 -4.66526441	 -2.74601079	  4.08225848	  0.00000000	  0.00000000	  0.00000000	  0.00000000	  0.71232020	  0.91054549	 -0.27386819	  0.71191496	  0.89182527	 -0.22361933	  0.70757288	  0.89396105	 -0.33005763	  0.70327793	  0.47932744	 -0.20027466	  0.70399940	  0.48225298	 -0.36233252	  0.62480452	  0.07007424	 -0.17914372	  0.65576076	  0.06873989	 -0.35781382	  0.77928902	  0.99651076	 -0.27760747	  0.78362869	  0.99437634	 -0.17124013	  0.77494946	  0.99864511	 -0.38397484	  0.57816340	  1.00339965	 -0.22553437	  0.57220484	  1.00587685	 -0.31346948	  0.71615130	  0.48234069	 -0.14226413	  0.70866429	  0.48684955	 -0.42147042	  0.68975689	  0.50033681	 -0.25853047	  0.69316141	  0.49108521	 -0.31445078	  0.62319546	  0.07233924	 -0.14124662	  0.65173186	  0.06877933	 -0.39710732	  0.62178940	  0.07036872	 -0.20974498	  0.66353866	  0.07538481	 -0.32858586	  0.58029562	  0.04572648	 -0.19018719	  0.60949199	  0.04537126	 -0.35589521	  0.69427589	  1.39226838	 -0.28157326	  0.73584475	  1.19165934	 -0.28672785	  0.60580497	  1.46143870	 -0.28589319	  0.70969716	  1.39245577	 -0.20030619	  0.70381892	  1.39006960	 -0.35582502	  0.74533807	  0.04285365	 -0.18320553	  0.78343143	  0.04233185	 -0.37316728	  0.75656268	  0.60154644	 -0.07011004	  0.85085861	  0.62552576	 -0.36343473	  0.76641591	  0.65938228	 -0.14349841	  0.77498629	  0.68510808	 -0.39907332	  0.76288514	  0.57738570	 -0.16407350	  0.76520560	  0.59889570	 -0.40098108	  0.65392565	  0.14387495	 -0.07788479	  0.76906416	  0.17248142	 -0.35741731	  0.64476674	  0.20229307	 -0.14060902	  0.70371548	  0.22576940	 -0.36554234	  0.71599782	  0.91031271	 -0.27508122	  0.71474177	  0.89140391	 -0.22602810	  0.71224689	  0.89348012	 -0.33254862	  0.70409346	  0.47925624	 -0.20128684	  0.71044677	  0.48161942	 -0.36241490	  0.62495309	  0.07001132	 -0.17946261	  0.65584004	  0.06871895	 -0.35776266	  0.78311217	  0.99602139	 -0.27890012	  0.78560585	  0.99394631	 -0.17243415	  0.78061855	  0.99809653	 -0.38536608	  0.58062029	  1.00323236	 -0.23007824	  0.57667023	  1.00532269	 -0.31851938	  0.71664840	  0.48241809	 -0.14321251	  0.71531504	  0.48588717	 -0.42156163	  0.69153690	  0.50022274	 -0.26009476	  0.69961202	  0.49082690	 -0.31490621	  0.62313342	  0.07238338	 -0.14158040	  0.65193450	  0.06879259	 -0.39706904	  0.62199438	  0.07047089	 -0.21001229	  0.66358423	  0.07534228	 -0.32850745	  0.58045495	  0.04578112	 -0.19040743	  0.60945404	  0.04551143	 -0.35591739	  0.69599909	  1.39258826	 -0.28259322	  0.73956984	  1.19236290	 -0.28777063	  0.60705066	  1.46085274	 -0.28877416	  0.70999473	  1.39263511	 -0.20129910	  0.70687306	  1.39073980	 -0.35643962	  0.74547726	  0.04283335	 -0.18323889	  0.78351390	  0.04219304	 -0.37288028	  0.75641853	  0.60162246	 -0.07100479	  0.85726678	  0.62557870	 -0.36356816	  0.76700205	  0.65924263	 -0.14436603	  0.78158003	  0.68470430	 -0.39976305	  0.76369905	  0.57740426	 -0.16490312	  0.77194446	  0.59844208	 -0.40142852	  0.65382844	  0.14418431	 -0.07828207	  0.77100682	  0.17076899	 -0.35685036	  0.64497674	  0.20262010	 -0.14104585	  0.70634490	  0.22495702	 -0.36531705
